<svg width="1113" height="172" viewBox="0 0 1113 172" fill="none" xmlns="http://www.w3.org/2000/svg">
<g style="mix-blend-mode:color-dodge" opacity="0.15">
<path fill-rule="evenodd" clip-rule="evenodd" d="M357.934 0.772217V34.9727H336.911V66.4589H358.487V121.831C358.487 137.466 363.281 147.527 365.679 150.603C378.514 171.883 413.071 167.794 428.746 163.089V132.688L423.767 134.317C406.064 137.791 400.532 126.355 399.978 120.203V66.4589H430.959V34.9727H399.978V0.772217H357.934ZM0 35.5156L0 163.632H43.1512V104.459C42.598 81.1162 46.9528 65.916 66.3865 65.916C82.4299 65.916 86.118 80.5734 86.3024 88.7164C86.118 95.7736 86.6343 113.471 90.1749 127.803C94.6007 145.717 111.751 163.632 127.241 166.889C142.731 170.146 168.179 175.032 188.095 156.032C207.48 137.538 207.473 129.33 207.458 113.387L207.458 113.355L207.458 112.656L207.458 112.06C207.458 111.577 207.457 111.096 207.457 110.617C207.441 94.3927 207.428 80.2464 225.161 69.1732C239.766 60.0531 254.481 68.2684 260.014 73.5162C277.164 96.3165 267.759 114.774 258.907 125.088C251.826 133.34 236.778 133.231 230.14 132.146C230.14 146.043 220.551 159.651 215.756 164.717C216.678 166.165 224.054 168.843 246.183 167.975C268.312 167.106 283.065 156.394 287.675 151.146C293.871 164.175 305.009 167.07 309.804 166.889C311.463 167.07 316 167.323 320.868 166.889C325.736 166.455 330.273 164.175 331.932 163.089V132.146C316 139.529 311.648 127.622 311.463 120.745V33.887H282.142V43.6586C277.717 41.0528 270.709 37.5061 267.759 36.0585C242.864 28.4584 218.522 27.9155 190.308 46.373C162.094 64.8304 165.413 102.288 165.966 106.631C166.519 110.974 165.413 128.346 147.71 127.803C133.547 127.368 129.638 116.764 129.454 111.517V78.402V75.6877C123.921 40.9443 106.218 33.3442 81.3234 31.7156C61.4075 30.4127 46.4705 45.2872 41.4915 52.8873V35.5156H0ZM453.641 163.089H496.792V46.9158C495.132 51.0777 488.494 59.2931 475.216 58.8588C461.939 58.4245 455.301 50.7158 453.641 46.9158V163.089ZM475.343 46.9152C488.79 46.9152 499.69 36.7131 499.69 24.1282C499.69 11.5433 488.79 1.34117 475.343 1.34117C461.897 1.34117 450.997 11.5433 450.997 24.1282C450.997 36.7131 461.897 46.9152 475.343 46.9152ZM1084.27 1.34117H1042.28C1042.46 29.5529 1042.83 92.0526 1042.83 116.358C1042.83 140.664 1049.46 151.804 1052.78 154.335C1067.8 172.13 1099.19 167.537 1113 163.016V132.092C1088.69 139.904 1083.72 126.305 1084.27 118.528V1.34117ZM1001.52 118.724V34.2123H972.188V42.9361C965.733 38.7559 947.399 30.3957 925.708 30.3957C898.595 30.3957 869.268 49.4789 861.522 70.1978C853.775 90.9166 852.668 118.724 869.268 140.533C885.868 162.342 904.682 167.249 930.688 168.885C951.494 170.194 971.082 157.799 978.275 151.438C983.808 163.433 994.875 167.249 1005.94 167.249C1014.8 167.249 1020.33 164.705 1021.99 163.433V132.354C1005.17 139.333 1001.33 126.175 1001.52 118.724ZM627.461 160.161C617.28 153.619 611.415 135.989 609.755 127.993C603.557 132.354 592.048 132.718 587.068 132.354C561.928 127.993 561.615 101.821 562.168 95.8238C562.721 89.8262 566.595 64.7454 594.815 65.8359C617.391 66.7083 623.773 85.8278 624.141 95.2785V114.907C624.141 122.758 626.355 131.627 627.461 135.081C632.995 150.347 664.535 180.335 702.715 168.34C733.259 158.744 744.584 130.173 746.428 117.088V95.2785C746.428 83.8286 750.855 65.8359 769.115 65.8359C783.723 65.8359 788.482 79.6485 789.035 86.5548V163.978H831.642C831.826 141.805 832.084 93.5338 831.642 77.831C831.088 58.2026 819.468 32.5767 787.928 30.941C762.696 29.6324 748.273 44.9353 744.215 52.7503V35.3028H702.715V102.367C703.268 110.545 702.715 127.993 685.008 127.993C670.843 127.993 666.564 116.724 666.195 111.09V98.0047C665.752 80.1211 658.633 65.8359 655.128 60.9288C633.548 35.3028 611.415 30.9409 584.855 31.4862C558.295 32.0314 522.881 53.2955 520.668 95.8238C518.897 129.846 539.112 149.62 549.441 155.254C580.871 177.064 614.55 167.613 627.461 160.161ZM959.954 99.0707C960.397 126.598 939.468 133.115 928.948 132.933C928.085 132.933 898.495 132.933 897.942 99.0707C897.499 71.9805 917.69 65.9361 927.841 66.3003C953.089 65.8633 959.77 87.9651 959.954 99.0707Z" fill="#BABABA"/>
</g>
</svg>
