<svg xmlns="http://www.w3.org/2000/svg" xmlns:xlink="http://www.w3.org/1999/xlink">
	<symbol id="arrow" viewBox="0 0 11 18" fill="none" xmlns="http://www.w3.org/2000/svg">
		<path
			fillRule="evenodd"
			clipRule="evenodd"
			d="M10.887 8.59338L2.13512 0.843587C1.96914 0.695627 1.75029 0.605713 1.51044 0.605713C0.991773 0.605713 0.57131 1.02618 0.57131 1.54484C0.57131 1.82678 0.695548 2.0797 0.892263 2.25184L8.09892 8.63337L0.867835 15.4163L0.867902 15.4164C0.685334 15.5877 0.571289 15.8312 0.571289 16.1013C0.571289 16.62 0.991752 17.0405 1.51042 17.0405C1.7639 17.0405 1.99392 16.94 2.16287 16.7768L10.887 8.59338Z"
			fill="currentColor"
		/>
	</symbol>
	<symbol id="burger" width="25" height="19" fill="none" xmlns="http://www.w3.org/2000/svg">
		<path fill="#FAFAFB" d="M0 0h25v3H0zM0 16h25v3H0zM0 8h25v3H0z" />
	</symbol>
	<symbol id="close" viewBox="0 0 27 26" width="23" height="22" fill="none" xmlns="http://www.w3.org/2000/svg">
		<path d="m2.18 2 23 22m-23 0 23-22" stroke="currentColor" stroke-width="4" />
	</symbol>
	<symbol id="preloader" viewBox="0 0 519 81" fill="none" xmlns="http://www.w3.org/2000/svg">
		<path
			fill-rule="evenodd"
			clip-rule="evenodd"
			d="M166.907 0V16.2282H157.104V31.1685H167.165V57.4428C167.165 64.8614 169.401 69.6354 170.519 71.0951C176.504 81.1927 192.618 79.2522 199.927 77.0197V62.5946L197.606 63.3674C189.351 65.016 186.771 59.5894 186.513 56.67V31.1685H200.959V16.2282H186.513V0H166.907ZM0 16.4858V77.2773H20.1217V49.1999C19.8638 38.1234 21.8944 30.9109 30.9565 30.9109C38.4377 30.9109 40.1575 37.8659 40.2435 41.7297C40.1575 45.0784 40.3982 53.4759 42.0492 60.2763C44.113 68.7769 52.1101 77.2773 59.3333 78.8228C66.5565 80.3684 78.4231 82.6867 87.7101 73.671C96.7494 64.8957 96.746 61.0012 96.7394 53.4362C96.7393 53.229 96.7391 53.019 96.7391 52.8062C96.7391 52.5771 96.7389 52.349 96.7386 52.1217C96.7315 44.4232 96.7252 37.7107 104.994 32.4565C111.805 28.1289 118.667 32.0271 121.246 34.5172C129.243 45.336 124.858 54.0941 120.73 58.9883C117.428 62.9037 110.412 62.8522 107.316 62.337C107.316 68.9313 102.844 75.3883 100.609 77.7925C101.039 78.4794 104.478 79.7502 114.797 79.338C125.116 78.9259 131.995 73.8428 134.145 71.3527C137.034 77.5349 142.228 78.9087 144.464 78.8228C145.238 78.9087 147.353 79.0289 149.623 78.8228C151.893 78.6168 154.009 77.5349 154.783 77.0197V62.337C147.353 65.8403 145.324 60.1904 145.238 56.9276V15.7131H131.565V20.3497C129.501 19.1133 126.234 17.4303 124.858 16.7434C113.249 13.1372 101.898 12.8796 88.742 21.6377C75.5855 30.3958 77.1333 48.1695 77.3913 50.2303C77.6492 52.291 77.1333 60.5339 68.8782 60.2763C62.2742 60.0702 60.4512 55.0386 60.3652 52.5486V36.8355V35.5476C57.7855 19.0618 49.5304 15.4555 37.9217 14.6827C28.6348 14.0645 21.6695 21.1225 19.3478 24.7288V16.4858H0ZM211.536 21.8952V77.0197H231.658V21.8952C230.884 23.8701 227.788 27.7683 221.597 27.5622C215.406 27.3562 212.31 23.6984 211.536 21.8952ZM221.656 21.8955C227.926 21.8955 233.009 17.0546 233.009 11.083C233.009 5.11143 227.926 0.270508 221.656 0.270508C215.386 0.270508 210.303 5.11143 210.303 11.083C210.303 17.0546 215.386 21.8955 221.656 21.8955ZM505.603 0.270508H486.022C486.108 13.657 486.279 43.3133 486.279 54.8463C486.279 66.3794 489.371 71.6653 490.917 72.8667C497.925 81.3105 512.559 79.1309 519 76.9856V62.3119C507.664 66.019 505.345 59.566 505.603 55.8761V0.270508ZM467.014 55.968V15.8672H453.339V20.0066C450.329 18.0231 441.779 14.0562 431.665 14.0562C419.022 14.0562 405.346 23.1112 401.734 32.9423C398.122 42.7735 397.606 55.968 405.346 66.3166C413.087 76.6652 421.86 78.9936 433.987 79.7698C443.689 80.3907 452.823 74.5092 456.177 71.4909C458.757 77.1826 463.918 78.9936 469.078 78.9936C473.207 78.9936 475.787 77.7863 476.561 77.1826V62.4359C468.717 65.7474 466.928 59.5037 467.014 55.968ZM292.59 75.6303C287.843 72.5257 285.107 64.1606 284.333 60.3661C281.444 62.4359 276.077 62.6083 273.754 62.4359C262.032 60.3661 261.885 47.9478 262.143 45.102C262.401 42.2561 264.208 30.3552 277.367 30.8726C287.894 31.2866 290.87 40.3588 291.042 44.8432V54.157C291.042 57.8825 292.074 62.0909 292.59 63.7294C295.17 70.9734 309.878 85.2028 327.681 79.511C341.924 74.9577 347.205 61.401 348.065 55.1918V44.8432C348.065 39.4102 350.129 30.8726 358.644 30.8726C365.456 30.8726 367.675 37.4267 367.933 40.7038V77.4413H387.801C387.887 66.9202 388.007 44.0153 387.801 36.5644C387.543 27.2506 382.124 15.091 367.417 14.3149C355.651 13.694 348.925 20.9552 347.033 24.6635V16.3846H327.681V48.2066C327.939 52.0873 327.681 60.3661 319.425 60.3661C312.819 60.3661 310.824 55.0194 310.652 52.346V46.1368C310.445 37.651 307.126 30.8726 305.491 28.5442C295.428 16.3846 285.107 14.3149 272.722 14.5736C260.337 14.8323 243.824 24.9222 242.792 45.102C241.966 61.2458 251.392 70.6285 256.209 73.3019C270.865 83.6505 286.57 79.1661 292.59 75.6303ZM447.634 46.6427C447.841 59.7044 438.081 62.797 433.176 62.7107C432.773 62.7107 418.976 62.7107 418.717 46.6427C418.511 33.7883 427.926 30.9203 432.659 31.093C444.433 30.8857 447.548 41.3731 447.634 46.6427Z"
			fill="white"
		/>
	</symbol>
	<symbol id="email" viewBox="0 0 47 47" fill="none" xmlns="http://www.w3.org/2000/svg">
		<circle cx="23.3027" cy="23.6108" r="22.3027" fill="#CD2D3C" stroke="white" stroke-width="2" />
		<path d="M33.9405 13.4792H12.3264L23.049 22.1755L33.9405 13.4792Z" fill="white" />
		<path
			d="M22.5424 24.4551L10.8066 15.1678V32.6448C10.8066 33.4554 11.4258 33.7143 11.7354 33.7424H34.6159C35.4264 33.6749 35.629 32.9826 35.629 32.6448V15.1678L23.7244 24.4551C23.1841 24.8604 22.7113 24.624 22.5424 24.4551Z"
			fill="white"
		/>
	</symbol>
	<symbol id="call" viewBox="0 0 47 48" fill="none" xmlns="http://www.w3.org/2000/svg">
		<circle cx="23.3027" cy="23.8742" r="22.3027" fill="#CD2D3C" stroke="white" stroke-width="2" />
		<path
			d="M9.79398 12.1384C7.09222 14.9077 7.93652 19.0898 8.69639 20.8347C9.87841 24.1274 12.2424 28.4334 16.7172 32.4017C21.192 36.3699 25.0758 38.565 28.0309 38.6495C30.9859 38.7339 32.1679 38.1429 34.0254 36.4543C35.5114 35.1034 34.926 33.7525 34.4475 33.246C34.138 32.8801 32.9953 31.6587 30.9015 29.6999C28.2841 27.2514 26.089 29.1089 25.5824 29.4466C25.0758 29.7843 23.8938 30.2909 22.6273 29.9532C21.3609 29.6155 18.9124 27.3359 17.1394 25.1407C15.3664 22.9455 16.5484 20.8347 17.055 20.1593C17.5615 19.4839 18.4058 18.3863 18.0681 17.1198C17.7304 15.8534 16.3795 13.827 13.931 11.5474C11.9723 9.72371 10.3568 11.1815 9.79398 12.1384Z"
			fill="white"
		/>
		<path
			d="M27.6931 19.5683C26.4773 18.0823 24.3159 17.4857 23.3872 17.3731C23.0776 17.3731 22.4585 17.2043 22.4585 16.5288C22.4585 15.8534 23.1339 15.6845 23.4716 15.6845C24.9069 15.8534 27.5243 16.8665 29.1284 18.6396C30.7326 20.4126 31.3236 22.6922 31.4081 23.7898C31.4795 24.7185 31.0703 25.0562 30.7326 25.0562C30.3949 25.0562 29.8883 24.9718 29.7195 23.7898C29.442 21.8479 29.2129 21.4258 27.6931 19.5683Z"
			fill="white"
		/>
		<path
			d="M21.9521 11.5475C21.9521 12.1554 22.515 12.3073 22.7964 12.3073C25.4138 13.0672 27.6934 12.9828 31.2394 16.6133C34.0763 19.5177 34.7855 23.3958 34.7855 24.9718C34.8699 25.1407 34.7855 25.8161 35.5454 25.9006C36.1533 25.9681 36.3615 25.4784 36.3897 25.2251C36.4741 23.1988 35.7142 19.4839 32.337 15.3468C28.9598 11.2097 23.0497 10.7876 22.8809 10.7876C22.712 10.7876 21.9521 10.7876 21.9521 11.5475Z"
			fill="white"
		/>
	</symbol>
	<symbol id="location" viewBox="0 0 47 48" fill="none" xmlns="http://www.w3.org/2000/svg">
		<circle cx="23.3027" cy="23.8649" r="22.3027" fill="#CD2D3C" stroke="white" stroke-width="2" />
		<path
			d="M15.2 23.1892L23.3052 40.1596L31.6638 22.5982C33.4875 17.5324 31.4105 13.8456 30.1441 12.6354C24.4704 7.09684 18.7742 10.1025 16.6353 12.2977C12.7177 16.2828 14.0461 21.2192 15.2 23.1892Z"
			fill="white"
		/>
		<circle cx="23.2181" cy="18.8834" r="4.13707" fill="#CD2D3C" />
	</symbol>
	<symbol id="link" viewBox="0 0 48 48" fill="none" xmlns="http://www.w3.org/2000/svg">
		<path
			fill-rule="evenodd"
			clip-rule="evenodd"
			d="M24 48C37.2548 48 48 37.2548 48 24C48 10.7452 37.2548 0 24 0C10.7452 0 0 10.7452 0 24C0 37.2548 10.7452 48 24 48ZM17.3955 21.1665L12.0036 30.5627C10.2244 33.2807 10.7475 37.7857 14.5426 40.0533C16.3916 41.1581 18.3494 41.4187 20.1084 40.8861C21.8402 40.3616 23.2358 39.1114 24.0791 37.4557L29.4751 28.0525L26.8731 26.5593L21.4575 35.9968L21.4367 36.033L21.418 36.0703C20.9052 37.0914 20.1141 37.7498 19.2389 38.0148C18.3772 38.2758 17.2887 38.1994 16.0814 37.478C13.7858 36.1064 13.6359 33.5167 14.5274 32.1849L14.5562 32.1419L14.5819 32.0971L19.9976 22.6596L17.3955 21.1665ZM35.9964 16.3938L30.6045 25.7901L28.0024 24.2969L33.4181 14.8594L33.4438 14.8146L33.4726 14.7716C34.3641 13.4398 34.2142 10.8501 31.9186 9.47852C30.7113 8.75715 29.6228 8.68075 28.7611 8.94168C27.8859 9.2067 27.0948 9.8651 26.582 10.8863L26.5633 10.9236L26.5425 10.9598L21.1269 20.3972L18.5249 18.9041L23.9209 9.50084C24.7642 7.84508 26.1598 6.59488 27.8916 6.07044C29.6506 5.53779 31.6084 5.79844 33.4574 6.90321C37.2525 9.17087 37.7756 13.6759 35.9964 16.3938ZM21.1285 31.0051L29.4763 16.3964L26.8715 14.908L18.5237 29.5167L21.1285 31.0051Z"
			fill="#CD2D3C"
		/>
	</symbol>
	<symbol id="navArrow" width="14" height="9" viewBox="0 0 14 9" fill="none" xmlns="http://www.w3.org/2000/svg">
		<path d="M7 9L0.937822 0.75L13.0622 0.75L7 9Z" fill="white" />
	</symbol>
	<symbol id="company1" viewBox="0 0 84 74" fill="none" xmlns="http://www.w3.org/2000/svg">
		<path
			d="M72.84 64.3095H7.22V54.4695H72.84V64.3095ZM65.63 33.4695H49.88V26.2495H65.63V33.4695ZM42 33.4695H26.25V26.2495H42V33.4695ZM23.63 26.2495V33.4695H16.41V26.9095C16.41 25.6595 15.56 24.6795 14.44 24.3495V11.1595H26.51C26.97 11.5495 27.56 11.8195 28.22 11.8195V15.7595C28.22 16.7395 28.74 17.5995 29.53 17.9895V23.6295H26.25C24.81 23.6295 23.63 24.8095 23.63 26.2495ZM13.78 33.4695H4.59V26.9095H13.78V33.4695ZM6.56 3.27953H25.59V8.52953H11.81V24.2795H6.56V3.27953ZM34.78 18.3795V23.6295H32.16V18.3795H34.78ZM30.85 15.7495V11.8095H36.1V15.7495H30.85ZM28.22 2.62953H38.72V9.18953H28.22V2.62953ZM73.5 33.4695H68.25V26.2495C68.25 24.8095 67.07 23.6295 65.63 23.6295H49.88C48.44 23.6295 47.26 24.8095 47.26 26.2495V33.4695H44.64V26.2495C44.64 24.8095 43.46 23.6295 42.02 23.6295H37.43V17.9895C38.22 17.5295 38.74 16.6795 38.74 15.7595V11.8195C40.18 11.8195 41.36 10.6395 41.36 9.19953V2.63953C41.36 1.19953 40.18 0.0195312 38.74 0.0195312H28.24C27.58 0.0195312 26.99 0.279531 26.53 0.679531H6.58C5.14 0.679531 3.96 1.85953 3.96 3.29953V24.3695C2.84 24.6295 1.99 25.6795 1.99 26.9295V33.4895H1.33C0.61 33.4895 0.0200005 34.0795 0.0200005 34.7995C0.0200005 35.5195 0.61 36.1095 1.33 36.1095H73.52C77.85 36.1095 81.39 39.6495 81.39 43.9895C81.39 48.3295 77.85 51.8695 73.52 51.8695H1.31C0.589999 51.8695 0 52.4595 0 53.1795C0 53.8995 0.589999 54.4895 1.31 54.4895H4.59V72.2095C4.59 72.9295 5.18 73.5195 5.9 73.5195C6.62 73.5195 7.21 72.9295 7.21 72.2095V66.9595H72.83V72.2095C72.83 72.9295 73.42 73.5195 74.14 73.5195C74.86 73.5195 75.45 72.9295 75.45 72.2095V54.2895C80.31 53.3695 83.98 49.1095 83.98 43.9895C83.98 38.2195 79.26 33.4895 73.48 33.4895L73.5 33.4695Z"
			fill="white"
		/>
		<path
			d="M70.88 43.9697C70.88 42.5297 72.06 41.3497 73.5 41.3497C74.94 41.3497 76.12 42.5297 76.12 43.9697C76.12 45.4097 74.94 46.5897 73.5 46.5897C72.06 46.5897 70.88 45.4097 70.88 43.9697ZM78.75 43.9697C78.75 41.0797 76.39 38.7197 73.5 38.7197C70.61 38.7197 68.25 41.0797 68.25 43.9697C68.25 46.8597 70.61 49.2197 73.5 49.2197C76.39 49.2197 78.75 46.8597 78.75 43.9697Z"
			fill="white"
		/>
		<path
			d="M59.06 43.9699C59.06 42.8499 59.91 41.9999 61.03 41.9999C62.15 41.9999 63 42.8499 63 43.9699C63 45.0899 62.15 45.9399 61.03 45.9399C59.91 45.9399 59.06 45.0899 59.06 43.9699ZM65.63 43.9699C65.63 41.4099 63.6 39.3799 61.04 39.3799C58.48 39.3799 56.45 41.4099 56.45 43.9699C56.45 46.5299 58.48 48.5599 61.04 48.5599C63.6 48.5599 65.63 46.5299 65.63 43.9699Z"
			fill="white"
		/>
		<path
			d="M47.2499 43.9699C47.2499 42.8499 48.0999 41.9999 49.2199 41.9999C50.3399 41.9999 51.1899 42.8499 51.1899 43.9699C51.1899 45.0899 50.3399 45.9399 49.2199 45.9399C48.0999 45.9399 47.2499 45.0899 47.2499 43.9699ZM53.8099 43.9699C53.8099 41.4099 51.7799 39.3799 49.2199 39.3799C46.6599 39.3799 44.6299 41.4099 44.6299 43.9699C44.6299 46.5299 46.6599 48.5599 49.2199 48.5599C51.7799 48.5599 53.8099 46.5299 53.8099 43.9699Z"
			fill="white"
		/>
		<path
			d="M35.4398 43.9699C35.4398 42.8499 36.2898 41.9999 37.4098 41.9999C38.5298 41.9999 39.3798 42.8499 39.3798 43.9699C39.3798 45.0899 38.5298 45.9399 37.4098 45.9399C36.2898 45.9399 35.4398 45.0899 35.4398 43.9699ZM41.9998 43.9699C41.9998 41.4099 39.9698 39.3799 37.4098 39.3799C34.8498 39.3799 32.8198 41.4099 32.8198 43.9699C32.8198 46.5299 34.8498 48.5599 37.4098 48.5599C39.9698 48.5599 41.9998 46.5299 41.9998 43.9699Z"
			fill="white"
		/>
		<path
			d="M23.63 43.9699C23.63 42.8499 24.48 41.9999 25.6 41.9999C26.72 41.9999 27.57 42.8499 27.57 43.9699C27.57 45.0899 26.72 45.9399 25.6 45.9399C24.48 45.9399 23.63 45.0899 23.63 43.9699ZM30.19 43.9699C30.19 41.4099 28.16 39.3799 25.6 39.3799C23.04 39.3799 21.01 41.4099 21.01 43.9699C21.01 46.5299 23.04 48.5599 25.6 48.5599C28.16 48.5599 30.19 46.5299 30.19 43.9699Z"
			fill="white"
		/>
		<path
			d="M11.8099 43.9699C11.8099 42.8499 12.66 41.9999 13.78 41.9999C14.9 41.9999 15.75 42.8499 15.75 43.9699C15.75 45.0899 14.9 45.9399 13.78 45.9399C12.66 45.9399 11.8099 45.0899 11.8099 43.9699ZM18.3799 43.9699C18.3799 41.4099 16.35 39.3799 13.79 39.3799C11.23 39.3799 9.19995 41.4099 9.19995 43.9699C9.19995 46.5299 11.23 48.5599 13.79 48.5599C16.35 48.5599 18.3799 46.5299 18.3799 43.9699Z"
			fill="white"
		/>
	</symbol>
	<symbol id="company2" viewBox="0 0 69 81" fill="none" xmlns="http://www.w3.org/2000/svg">
		<path
			d="M25.5802 16.7798C25.8102 16.5498 26.1102 16.4298 26.4202 16.4298C26.7302 16.4298 27.0302 16.5498 27.2602 16.7798L31.0102 20.5398C31.2502 20.7798 31.5902 20.9198 31.9302 20.9198C32.2802 20.9198 32.6102 20.7798 32.8502 20.5298L41.0102 12.2698C41.2302 12.0498 41.5302 11.9198 41.8402 11.9198C42.1502 11.9198 42.4502 12.0398 42.6702 12.2698C43.1302 12.7298 43.1302 13.4798 42.6702 13.9498C41.4402 15.1998 40.2102 16.4498 38.9802 17.6998C36.9402 19.7698 34.8402 21.9098 32.7602 23.9998C32.3002 24.4598 31.5502 24.4598 31.0802 23.9998L25.5702 18.4698C25.3502 18.2498 25.2202 17.9498 25.2202 17.6298C25.2202 17.3098 25.3402 17.0098 25.5702 16.7898L25.5802 16.7798ZM29.2502 25.8398C29.9902 26.5798 30.9602 26.9498 31.9302 26.9498C32.9002 26.9498 33.8702 26.5798 34.6102 25.8398C36.7002 23.7398 38.8102 21.5998 40.8502 19.5298C42.0802 18.2798 43.3002 17.0298 44.5302 15.7898C46.0002 14.2998 45.9902 11.8998 44.5102 10.4198C43.7902 9.70977 42.8502 9.30976 41.8402 9.30976C41.8402 9.30976 41.8302 9.30976 41.8202 9.30976C40.8102 9.30976 39.8602 9.70977 39.1502 10.4298L31.9102 17.7598L29.0902 14.9298C27.6102 13.4498 25.2102 13.4498 23.7302 14.9298C23.0102 15.6498 22.6202 16.5998 22.6202 17.6198C22.6202 18.6398 23.0102 19.5898 23.7302 20.3098L29.2402 25.8398H29.2502ZM39.3102 53.7898L35.9102 47.8798L61.5402 33.0398L64.9402 38.9498L39.3102 53.7898ZM60.7102 62.7898L35.4302 77.4298V52.2698L37.7102 56.2198C37.8802 56.5198 38.1702 56.7398 38.5002 56.8298C38.6102 56.8598 38.7202 56.8698 38.8402 56.8698C39.0702 56.8698 39.2902 56.8098 39.4902 56.6898L60.7202 44.3998V62.7798L60.7102 62.7898ZM7.54019 44.4098L28.7702 56.6998C28.9702 56.8198 29.1902 56.8798 29.4202 56.8798C29.5302 56.8798 29.6502 56.8698 29.7602 56.8398C30.0902 56.7498 30.3802 56.5298 30.5502 56.2298L32.8302 52.2798V77.4398L7.5502 62.7998V44.4198L7.54019 44.4098ZM6.72019 33.0298L32.3502 47.8698L28.9502 53.7798L3.32019 38.9398L6.72019 33.0298ZM16.1602 16.1098C16.0902 16.7698 16.0502 17.4498 16.0502 18.1298C16.0502 20.0298 16.3402 21.8598 16.8802 23.5798L6.71021 29.4698L3.31021 23.5598L16.1602 16.1198V16.1098ZM34.1302 2.60977C42.6602 2.60977 49.6002 9.56976 49.6002 18.1298C49.6002 26.6898 42.6602 33.6498 34.1302 33.6498C25.6002 33.6498 18.6602 26.6898 18.6602 18.1298C18.6602 9.56976 25.6002 2.60977 34.1302 2.60977ZM64.9402 23.5498L61.5402 29.4598L51.3702 23.5698C51.9102 21.8498 52.2002 20.0198 52.2002 18.1198C52.2002 17.4398 52.1602 16.7598 52.0902 16.0998L64.9402 23.5398V23.5498ZM34.1302 45.8898L8.85019 31.2498L17.8602 26.0298C20.7902 32.0798 26.9802 36.2598 34.1302 36.2598C41.2802 36.2598 47.4702 32.0798 50.4002 26.0298L59.4102 31.2498L34.1302 45.8898ZM63.5202 31.2498L67.8502 23.7298C68.2102 23.1098 68.0002 22.3098 67.3702 21.9498L51.3702 12.6798C49.0602 5.33977 42.2002 0.00976562 34.1302 0.00976562C26.0602 0.00976562 19.2002 5.34977 16.8902 12.6798L0.890199 21.9498C0.270199 22.3098 0.0501879 23.1098 0.410188 23.7298L4.7402 31.2498L0.410188 38.7698C0.0501879 39.3898 0.260199 40.1898 0.890199 40.5498L4.94019 42.8998V63.5398C4.94019 64.0098 5.19021 64.4398 5.59021 64.6698L33.4802 80.8198C33.6802 80.9398 33.9102 80.9998 34.1302 80.9998C34.3502 80.9998 34.5802 80.9398 34.7802 80.8198L62.6702 64.6698C63.0702 64.4398 63.3202 64.0098 63.3202 63.5398V42.8998L67.3702 40.5498C67.9902 40.1898 68.2102 39.3898 67.8502 38.7698L63.5202 31.2498Z"
			fill="white"
		/>
	</symbol>
	<symbol id="company3" viewBox="0 0 87 85" fill="none" xmlns="http://www.w3.org/2000/svg">
		<path
			d="M13.81 66.5902V68.1802C13.81 68.2602 13.74 68.3302 13.66 68.3302H12.08C12 68.3302 11.93 68.2602 11.93 68.1802V66.5902C11.93 66.5102 12 66.4402 12.08 66.4402H13.66C13.74 66.4402 13.81 66.5102 13.81 66.5902ZM17.91 68.1702V66.5802C17.91 66.5002 17.98 66.4302 18.06 66.4302H19.64C19.72 66.4302 19.79 66.5002 19.79 66.5802V68.1702C19.79 68.2502 19.72 68.3202 19.64 68.3202H18.06C17.98 68.3202 17.91 68.2502 17.91 68.1702ZM20.84 68.1702V66.5802C20.84 66.5002 20.91 66.4302 20.99 66.4302H22.57C22.65 66.4302 22.72 66.5002 22.72 66.5802V68.1702C22.72 68.2502 22.65 68.3202 22.57 68.3202H20.99C20.91 68.3202 20.84 68.2502 20.84 68.1702ZM10.88 66.5902V68.1802C10.88 68.2602 10.81 68.3302 10.73 68.3302H9.15002C9.07002 68.3302 9 68.2602 9 68.1802V66.5902C9 66.5102 9.07002 66.4402 9.15002 66.4402H10.73C10.81 66.4402 10.88 66.5102 10.88 66.5902ZM37.45 23.7702C37.45 24.4302 36.92 24.9702 36.26 24.9702C35.6 24.9702 35.07 24.4302 35.07 23.7702C35.07 23.1102 35.6 22.5702 36.26 22.5702C36.92 22.5702 37.45 23.1102 37.45 23.7702ZM56.15 23.7702C56.15 24.4302 55.62 24.9702 54.96 24.9702C54.3 24.9702 53.77 24.4302 53.77 23.7702C53.77 23.1102 54.3 22.5702 54.96 22.5702C55.62 22.5702 56.15 23.1102 56.15 23.7702ZM15.8 24.4502L13.04 24.8202C12.37 24.9102 11.76 24.4402 11.67 23.7702C11.58 23.1002 12.05 22.4802 12.72 22.3902L18.43 21.6302C19.1 21.5402 19.71 22.0102 19.8 22.6802L20.56 28.4202C20.65 29.0902 20.18 29.7102 19.51 29.8002C18.84 29.8902 18.23 29.4202 18.14 28.7502L17.77 25.9202C12.42 33.5002 10.27 43.2202 12 52.3702C12.13 53.0402 11.69 53.6802 11.03 53.8002C10.95 53.8102 10.88 53.8202 10.8 53.8202C10.23 53.8202 9.71004 53.4102 9.60004 52.8202C7.74004 43.0002 10.05 32.5802 15.8 24.4502ZM86.1 49.7202L81.54 53.2502C81.33 53.4202 81.0601 53.5002 80.8 53.5002C80.75 53.5002 80.69 53.5002 80.64 53.4902C80.32 53.4502 80.03 53.2802 79.83 53.0202L76.32 48.4302C75.91 47.8902 76.01 47.1202 76.54 46.7102C77.08 46.3002 77.84 46.4002 78.25 46.9302L79.98 49.1902C80.84 39.9302 77.87 30.4402 71.82 23.3802C71.38 22.8702 71.44 22.0902 71.95 21.6502C72.46 21.2102 73.23 21.2702 73.67 21.7802C80.16 29.3502 83.34 39.5402 82.41 49.4702L84.62 47.7602C85.15 47.3502 85.92 47.4502 86.33 47.9802C86.74 48.5202 86.64 49.2902 86.11 49.7002L86.1 49.7202ZM62.31 77.6302C62.6 78.2402 62.35 78.9702 61.74 79.2702C52.78 83.6202 42.17 84.0702 32.88 80.5902L33.95 83.1802C34.21 83.8102 33.91 84.5202 33.29 84.7802C33.14 84.8402 32.98 84.8702 32.82 84.8702C32.34 84.8702 31.89 84.5902 31.69 84.1102L29.48 78.7702C29.36 78.4702 29.36 78.1302 29.48 77.8302C29.6 77.5302 29.84 77.2902 30.14 77.1702L35.45 74.9502C36.07 74.6902 36.78 74.9902 37.04 75.6102C37.3 76.2402 37 76.9502 36.38 77.2102L33.76 78.3102C42.43 81.5402 52.32 81.1102 60.67 77.0602C61.28 76.7702 62.01 77.0202 62.3 77.6302H62.31ZM23.55 73.5802H17.08V65.4702L23.55 63.7102V73.5902V73.5802ZM8.17004 65.4602L14.64 63.7002V73.5802H8.17004V65.4702V65.4602ZM2.97003 73.5802V59.7802H5.73999V73.5802H2.97003ZM5.73004 56.0302V57.3302H2.96002V56.0302H5.73004ZM25.51 61.1302C25.21 60.9002 24.82 60.8202 24.45 60.9202L17.08 62.9302V62.1102C17.08 61.7302 16.9 61.3702 16.6 61.1402C16.3 60.9102 15.91 60.8302 15.54 60.9302L8.17004 62.9402V55.4202C8.17004 54.4102 7.35004 53.5902 6.35004 53.5902H2.35004C1.34004 53.5902 0.530029 54.4102 0.530029 55.4202V74.8202C0.530029 75.5002 1.08 76.0502 1.75 76.0502H24.77C25.44 76.0502 25.99 75.5002 25.99 74.8202V62.1202C25.99 61.7402 25.81 61.3802 25.51 61.1502V61.1302ZM74.75 78.3302C70.19 78.3302 67.01 77.0102 67.01 75.8202C67.01 71.5302 70.48 68.0402 74.75 68.0402C79.02 68.0402 82.49 71.5302 82.49 75.8202C82.49 77.0102 79.31 78.3302 74.75 78.3302ZM71.83 60.2502C71.83 58.6302 73.14 57.3102 74.75 57.3102C76.36 57.3102 77.67 58.6302 77.67 60.2502C77.67 61.8702 76.36 63.1902 74.75 63.1902C73.14 63.1902 71.83 61.8702 71.83 60.2502ZM75.34 65.6102C78.02 65.3102 80.11 63.0302 80.11 60.2502C80.11 57.2802 77.7 54.8602 74.75 54.8602C71.8 54.8602 69.39 57.2802 69.39 60.2502C69.39 63.0202 71.48 65.3102 74.16 65.6102C68.82 65.9202 64.57 70.3802 64.57 75.8302C64.57 77.0202 65.19 78.6802 68.17 79.7802C69.93 80.4302 72.26 80.7902 74.75 80.7902C79.45 80.7902 84.93 79.4902 84.93 75.8302C84.93 70.3802 80.68 65.9202 75.34 65.6102ZM62.19 23.9802H59.8C59.8 23.9102 59.8 23.8402 59.8 23.7702C59.8 23.4402 59.77 23.1202 59.71 22.8202H62.18V23.9902L62.19 23.9802ZM54.96 26.2002C53.63 26.2002 52.54 25.1102 52.54 23.7702C52.54 22.4302 53.62 21.3402 54.96 21.3402C56.3 21.3402 57.38 22.4302 57.38 23.7702C57.38 25.1102 56.29 26.2002 54.96 26.2002ZM41.11 23.9802C41.11 23.9102 41.11 23.8402 41.11 23.7702C41.11 23.4402 41.08 23.1202 41.02 22.8202H50.19C50.13 23.1302 50.1 23.4502 50.1 23.7702C50.1 23.8402 50.1 23.9102 50.1 23.9802H41.1H41.11ZM36.25 26.2002C34.92 26.2002 33.83 25.1102 33.83 23.7702C33.83 22.4302 34.91 21.3402 36.25 21.3402C37.59 21.3402 38.67 22.4302 38.67 23.7702C38.67 25.1102 37.58 26.2002 36.25 26.2002ZM29.34 23.9802V22.8102H31.49C31.43 23.1202 31.4 23.4402 31.4 23.7602C31.4 23.8302 31.4 23.9002 31.4 23.9702H29.33L29.34 23.9802ZM48.24 2.9102V20.3602H39.73C38.85 19.4502 37.62 18.8802 36.25 18.8802C34.88 18.8802 33.66 19.4502 32.77 20.3602H30.14V2.9102H48.24ZM52.63 8.8502V13.6002C52.63 14.2802 53.18 14.8302 53.85 14.8302H61.06V20.3702H58.43C57.55 19.4602 56.32 18.8902 54.95 18.8902C53.58 18.8902 52.36 19.4602 51.47 20.3702H50.67V8.8602H52.62L52.63 8.8502ZM57.63 9.0302L59.78 12.3702H55.07V8.8502H57.3C57.4501 8.8502 57.55 8.9002 57.63 9.0302ZM64.63 22.4002C64.63 21.6002 64.17 20.9102 63.5 20.5802V14.4802C63.5 13.9102 63.35 13.4102 63.05 12.9302L59.68 7.7002C59.15 6.8702 58.28 6.4002 57.3 6.4002H50.68V1.6802C50.68 1.0002 50.13 0.450195 49.46 0.450195H28.92C28.25 0.450195 27.7 1.0002 27.7 1.6802V20.7702C27.21 21.1402 26.89 21.7302 26.89 22.3902V24.3802C26.89 25.5002 27.8 26.4202 28.92 26.4202H32.18C33.05 27.7502 34.55 28.6402 36.25 28.6402C37.95 28.6402 39.45 27.7602 40.32 26.4202H50.89C51.76 27.7502 53.26 28.6402 54.96 28.6402C56.66 28.6402 58.16 27.7602 59.03 26.4202H62.61C63.73 26.4202 64.64 25.5102 64.64 24.3802V22.3902L64.63 22.4002ZM45.77 41.5902C48.15 41.5902 50.09 43.5402 50.09 45.9302C50.09 48.3202 48.15 50.2702 45.77 50.2702C43.39 50.2702 41.45 48.3202 41.45 45.9302C41.45 43.5402 43.39 41.5902 45.77 41.5902ZM45.77 52.7302C49.5 52.7302 52.53 49.6802 52.53 45.9402C52.53 42.2002 49.5 39.1502 45.77 39.1502C42.04 39.1502 39.01 42.2002 39.01 45.9402C39.01 49.6802 42.04 52.7302 45.77 52.7302ZM38.62 42.9602C39.15 41.6802 38.95 40.2902 38.13 39.2302L39.1 38.2502C40.15 39.0802 41.54 39.2702 42.81 38.7402C44.08 38.2102 44.92 37.0902 45.08 35.7602H46.46C46.62 37.1002 47.46 38.2102 48.73 38.7402C50 39.2702 51.38 39.0802 52.44 38.2502L53.41 39.2302C52.59 40.2902 52.39 41.6802 52.92 42.9602C53.45 44.2402 54.56 45.0802 55.89 45.2502V46.6302C54.56 46.7902 53.45 47.6402 52.92 48.9202C52.39 50.2002 52.58 51.5902 53.41 52.6502L52.44 53.6302C51.39 52.8002 50.01 52.6102 48.73 53.1402C47.46 53.6702 46.62 54.7902 46.46 56.1202H45.08C44.92 54.7802 44.08 53.6602 42.81 53.1302C41.54 52.6002 40.16 52.8002 39.1 53.6302L38.13 52.6502C38.96 51.5902 39.15 50.2002 38.62 48.9202C38.09 47.6402 36.98 46.8002 35.65 46.6302V45.2502C36.98 45.0902 38.09 44.2402 38.62 42.9602ZM35.17 42.8202C34.09 42.8202 33.21 43.7102 33.21 44.7902V47.0702C33.21 48.1602 34.09 49.0402 35.17 49.0402C35.97 49.0402 36.28 49.6502 36.36 49.8402C36.44 50.0302 36.65 50.6802 36.08 51.2502C35.71 51.6202 35.51 52.1202 35.51 52.6502C35.51 53.1802 35.71 53.6702 36.08 54.0502L37.68 55.6602C38.45 56.4302 39.69 56.4302 40.46 55.6602C41.03 55.0902 41.68 55.3002 41.87 55.3802C42.06 55.4602 42.67 55.7702 42.67 56.5802C42.67 57.6702 43.55 58.5502 44.63 58.5502H46.9C47.98 58.5502 48.86 57.6602 48.86 56.5802C48.86 55.7802 49.47 55.4602 49.66 55.3802C49.85 55.3002 50.5 55.0902 51.06 55.6602C51.83 56.4302 53.07 56.4302 53.84 55.6602L55.44 54.0502C55.81 53.6802 56.02 53.1802 56.02 52.6502C56.02 52.1202 55.82 51.6302 55.44 51.2502C54.88 50.6802 55.08 50.0302 55.16 49.8402C55.24 49.6502 55.55 49.0402 56.35 49.0402C57.43 49.0402 58.31 48.1502 58.31 47.0702V44.7902C58.31 43.7002 57.43 42.8202 56.35 42.8202C55.55 42.8202 55.24 42.2102 55.16 42.0202C55.08 41.8302 54.87 41.1802 55.44 40.6102C55.81 40.2402 56.02 39.7402 56.02 39.2102C56.02 38.6802 55.82 38.1902 55.44 37.8102L53.84 36.2002C53.07 35.4302 51.83 35.4302 51.06 36.2002C50.5 36.7702 49.84 36.5602 49.66 36.4802C49.47 36.4002 48.86 36.0902 48.86 35.2802C48.86 34.1902 47.98 33.3102 46.9 33.3102H44.63C43.55 33.3102 42.67 34.2002 42.67 35.2802C42.67 36.0802 42.06 36.4002 41.87 36.4802C41.68 36.5602 41.03 36.7702 40.47 36.2002C39.7 35.4302 38.46 35.4302 37.69 36.2002L36.09 37.8102C35.72 38.1802 35.52 38.6802 35.52 39.2102C35.52 39.7402 35.72 40.2302 36.09 40.6102C36.65 41.1802 36.44 41.8302 36.37 42.0202C36.29 42.2102 35.98 42.8202 35.18 42.8202H35.17Z"
			fill="white"
		/>
	</symbol>
</svg>
